<svg width="16" height="16" viewBox="0 0 16 16" fill="none" xmlns="http://www.w3.org/2000/svg" role="img" aria-label="Editar" focusable="false">
  <path d="M11.013 1.427a1.75 1.75 0 0 1 2.474 0l1.086 1.086a1.75 1.75 0 0 1 0 2.474l-8.61 8.61c-.21.21-.47.364-.756.445l-3.251.93a.75.75 0 0 1-.927-.928l.929-3.25c.081-.286.235-.547.445-.758l8.61-8.61Z" fill="currentColor"/>
  <path d="m5.21 3.83 1.697 1.697-8.485 8.485v1.697h1.697l8.485-8.485 1.697 1.697L1.5 17.25H.75v-.75L9.581 7.669z" fill="currentColor"/>
</svg> 