<svg width="24" height="24" viewBox="0 0 24 24" fill="none" xmlns="http://www.w3.org/2000/svg" role="img" aria-label="Usuários" focusable="false">
  <path d="M16 4c0-1.11.89-2 2-2s2 .89 2 2-.89 2-2 2-2-.89-2-2zm4 18v-6h2.5l-2.54-7.63A1.5 1.5 0 0 0 18.54 8H17.5c-.22 0-.42.05-.6.14-.46-.27-.97-.42-1.4-.42-.43 0-.94.15-1.4.42-.18-.09-.38-.14-.6-.14h-1.04a1.5 1.5 0 0 0-1.42.37L8.5 16H11v6h4v-2.5h2V22h3zM12.5 11.5c.83 0 1.5-.67 1.5-1.5s-.67-1.5-1.5-1.5S11 9.17 11 10s.67 1.5 1.5 1.5zM6 4c0-1.11.89-2 2-2s2 .89 2 2-.89 2-2 2-2-.89-2-2zM2 22v-6h2.5L7.04 8.37A1.5 1.5 0 0 1 8.46 8H9.5c.22 0 .42.05.6.14.46-.27.97-.42 1.4-.42.43 0 .94.15 1.4.42.18-.09.38-.14.6-.14h1.04a1.5 1.5 0 0 1 1.42.37L18.5 16H16v6h-4v-2.5h-2V22H7z" fill="currentColor"/>
</svg> 